# Blender 3.4.1
# www.blender.org
mtllib gpsf2manual.mtl
o Cube
v -1.163379 -0.889060 0.017686
v -1.163379 1.110940 0.017686
v -0.862823 -0.889060 -0.932084
v -0.862823 1.110940 -0.932084
v 1.137177 -0.889060 0.017686
v 1.137177 1.110940 0.017686
v 1.137177 -0.889060 -0.932084
v 1.137177 1.110940 -0.932084
v -0.142537 1.076675 -0.411753
v -0.142537 1.449415 -0.411753
v 0.188330 1.076675 -0.785236
v 0.188330 1.449415 -0.785236
v 1.036369 1.076675 -0.411753
v 1.036369 1.449415 -0.411753
v 0.705502 1.076675 -0.785236
v 0.705502 1.449415 -0.785236
v -0.781639 0.082836 -2.885090
v -0.781639 0.139044 -2.885090
v -0.781639 0.082836 -10.110602
v -0.781639 0.139044 -10.110602
v 1.055993 0.082836 -2.885090
v 1.055993 0.139044 -2.885090
v 1.055993 0.082836 -10.110602
v 1.055993 0.139044 -10.110602
v 1.083254 -0.943028 -0.891249
v 0.695869 -0.943028 -0.891249
v 1.083254 -1.126991 -0.891249
v 0.695869 -1.126991 -0.891249
v 1.083254 -0.943028 -0.503863
v 0.695869 -0.943028 -0.503863
v 1.083254 -1.126991 -0.503863
v 0.695869 -1.126991 -0.503863
v -0.133378 -0.943028 -0.891249
v -0.520763 -0.943028 -0.891249
v -0.133378 -1.126991 -0.891249
v -0.520763 -1.126991 -0.891249
v -0.133378 -0.943028 -0.503863
v -0.520763 -0.943028 -0.503863
v -0.133378 -1.126991 -0.503863
v -0.520763 -1.126991 -0.503863
v -0.665976 1.055116 0.027608
v -0.665976 1.470975 0.027608
v -0.665976 1.055116 -0.233657
v -0.665976 1.470975 -0.233657
v -0.350788 1.055116 0.027608
v -0.350788 1.470975 0.027608
v -0.350788 1.055116 -0.233657
v -0.350788 1.470975 -0.233657
v -0.142537 1.076675 0.002652
v -0.142537 1.449415 0.002652
v 1.036369 1.076675 0.002652
v 1.036369 1.449415 0.002652
v -1.163379 -0.889060 -0.017686
v -1.163379 1.110940 -0.017686
v -0.862823 -0.889060 0.932084
v -0.862823 1.110940 0.932084
v 1.137177 -0.889060 -0.017686
v 1.137177 1.110940 -0.017686
v 1.137177 -0.889060 0.932084
v 1.137177 1.110940 0.932084
v -0.142537 1.076675 0.411753
v -0.142537 1.449415 0.411753
v 0.188330 1.076675 0.785236
v 0.188330 1.449415 0.785236
v 1.036369 1.076675 0.411753
v 1.036369 1.449415 0.411753
v 0.705502 1.076675 0.785236
v 0.705502 1.449415 0.785236
v -0.781639 0.082836 2.885090
v -0.781639 0.139044 2.885090
v -0.781639 0.082836 10.110602
v -0.781639 0.139044 10.110602
v 1.055993 0.082836 2.885090
v 1.055993 0.139044 2.885090
v 1.055993 0.082836 10.110602
v 1.055993 0.139044 10.110602
v 1.083254 -0.943028 0.891249
v 0.695869 -0.943028 0.891249
v 1.083254 -1.126991 0.891249
v 0.695869 -1.126991 0.891249
v 1.083254 -0.943028 0.503863
v 0.695869 -0.943028 0.503863
v 1.083254 -1.126991 0.503863
v 0.695869 -1.126991 0.503863
v -0.133378 -0.943028 0.891249
v -0.520763 -0.943028 0.891249
v -0.133378 -1.126991 0.891249
v -0.520763 -1.126991 0.891249
v -0.133378 -0.943028 0.503863
v -0.520763 -0.943028 0.503863
v -0.133378 -1.126991 0.503863
v -0.520763 -1.126991 0.503863
v -0.665976 1.055116 -0.027608
v -0.665976 1.470975 -0.027608
v -0.665976 1.055116 0.233657
v -0.665976 1.470975 0.233657
v -0.350788 1.055116 -0.027608
v -0.350788 1.470975 -0.027608
v -0.350788 1.055116 0.233657
v -0.350788 1.470975 0.233657
v -0.142537 1.076675 -0.002652
v -0.142537 1.449415 -0.002652
v 1.036369 1.076675 -0.002652
v 1.036369 1.449415 -0.002652
vn -0.9534 -0.0000 -0.3017
vn -0.0000 -0.0000 -1.0000
vn 1.0000 -0.0000 -0.0000
vn -0.0000 -1.0000 -0.0000
vn -0.0000 1.0000 -0.0000
vn -0.7485 -0.0000 -0.6631
vn 0.7485 -0.0000 -0.6631
vn -1.0000 -0.0000 -0.0000
vn -0.0000 -0.0000 1.0000
vn -0.9534 -0.0000 0.3017
vn -0.7485 -0.0000 0.6631
vn 0.7485 -0.0000 0.6631
vt 0.375000 0.000000
vt 0.125000 0.750000
vt 0.625000 0.000000
vt 0.875000 0.750000
vt 0.375000 0.250000
vt 0.125000 0.500000
vt 0.625000 0.250000
vt 0.875000 0.500000
vt 0.375000 0.750000
vt 0.625000 0.750000
vt 0.375000 0.500000
vt 0.625000 0.500000
vt 0.125000 0.750000
vt 0.375000 0.000000
vt 0.625000 0.000000
vt 0.875000 0.750000
vt 0.125000 0.500000
vt 0.375000 0.250000
vt 0.625000 0.250000
vt 0.875000 0.500000
vt 0.375000 0.750000
vt 0.625000 0.750000
vt 0.375000 0.500000
vt 0.625000 0.500000
vt 0.375000 0.000000
vt 0.375000 1.000000
vt 0.125000 0.750000
vt 0.625000 0.000000
vt 0.625000 1.000000
vt 0.875000 0.750000
vt 0.125000 0.500000
vt 0.375000 0.250000
vt 0.625000 0.250000
vt 0.875000 0.500000
vt 0.375000 0.750000
vt 0.625000 0.750000
vt 0.375000 0.500000
vt 0.625000 0.500000
vt 0.375000 0.000000
vt 0.125000 0.750000
vt 0.625000 0.000000
vt 0.875000 0.750000
vt 0.375000 0.250000
vt 0.125000 0.500000
vt 0.625000 0.250000
vt 0.875000 0.500000
vt 0.375000 0.750000
vt 0.625000 0.750000
vt 0.375000 0.500000
vt 0.625000 0.500000
vt 0.375000 0.000000
vt 0.125000 0.750000
vt 0.625000 0.000000
vt 0.875000 0.750000
vt 0.375000 0.250000
vt 0.125000 0.500000
vt 0.625000 0.250000
vt 0.875000 0.500000
vt 0.375000 0.750000
vt 0.625000 0.750000
vt 0.375000 0.500000
vt 0.625000 0.500000
vt 0.375000 0.000000
vt 0.125000 0.750000
vt 0.625000 0.000000
vt 0.875000 0.750000
vt 0.125000 0.500000
vt 0.375000 0.250000
vt 0.625000 0.250000
vt 0.875000 0.500000
vt 0.375000 0.750000
vt 0.625000 0.750000
vt 0.375000 0.500000
vt 0.625000 0.500000
vt 0.375000 0.000000
vt 0.125000 0.750000
vt 0.625000 0.000000
vt 0.875000 0.750000
vt 0.375000 0.750000
vt 0.625000 0.750000
vt 0.375000 0.000000
vt 0.125000 0.750000
vt 0.625000 0.000000
vt 0.875000 0.750000
vt 0.375000 0.250000
vt 0.125000 0.500000
vt 0.625000 0.250000
vt 0.875000 0.500000
vt 0.375000 0.750000
vt 0.625000 0.750000
vt 0.375000 0.500000
vt 0.625000 0.500000
vt 0.125000 0.750000
vt 0.375000 0.000000
vt 0.625000 0.000000
vt 0.875000 0.750000
vt 0.125000 0.500000
vt 0.375000 0.250000
vt 0.625000 0.250000
vt 0.875000 0.500000
vt 0.375000 0.750000
vt 0.625000 0.750000
vt 0.375000 0.500000
vt 0.625000 0.500000
vt 0.375000 0.000000
vt 0.375000 1.000000
vt 0.125000 0.750000
vt 0.625000 0.000000
vt 0.625000 1.000000
vt 0.875000 0.750000
vt 0.125000 0.500000
vt 0.375000 0.250000
vt 0.625000 0.250000
vt 0.875000 0.500000
vt 0.375000 0.750000
vt 0.625000 0.750000
vt 0.375000 0.500000
vt 0.625000 0.500000
vt 0.375000 0.000000
vt 0.125000 0.750000
vt 0.625000 0.000000
vt 0.875000 0.750000
vt 0.125000 0.500000
vt 0.375000 0.250000
vt 0.625000 0.250000
vt 0.875000 0.500000
vt 0.375000 0.750000
vt 0.625000 0.750000
vt 0.375000 0.500000
vt 0.625000 0.500000
vt 0.375000 0.000000
vt 0.125000 0.750000
vt 0.625000 0.000000
vt 0.875000 0.750000
vt 0.125000 0.500000
vt 0.375000 0.250000
vt 0.625000 0.250000
vt 0.875000 0.500000
vt 0.375000 0.750000
vt 0.625000 0.750000
vt 0.375000 0.500000
vt 0.625000 0.500000
vt 0.375000 0.000000
vt 0.125000 0.750000
vt 0.625000 0.000000
vt 0.875000 0.750000
vt 0.125000 0.500000
vt 0.375000 0.250000
vt 0.625000 0.250000
vt 0.875000 0.500000
vt 0.375000 0.750000
vt 0.625000 0.750000
vt 0.375000 0.500000
vt 0.625000 0.500000
vt 0.375000 0.000000
vt 0.125000 0.750000
vt 0.625000 0.000000
vt 0.875000 0.750000
vt 0.375000 0.750000
vt 0.625000 0.750000
s 0
usemtl Material.001
f 8/12/3 5/9/3 7/11/3
f 10/15/6 11/18/6 9/14/6
f 12/19/2 15/23/2 11/18/2
f 16/24/7 13/21/7 15/23/7
f 15/23/4 9/13/4 11/17/4
f 12/20/5 14/22/5 16/24/5
f 23/37/4 17/27/4 19/31/4
f 25/39/9 28/45/9 27/43/9
f 28/45/5 31/49/5 27/43/5
f 32/50/2 29/47/2 31/49/2
f 31/49/8 25/40/8 27/44/8
f 28/46/3 30/48/3 32/50/3
f 33/51/9 36/57/9 35/55/9
f 36/57/5 39/61/5 35/55/5
f 40/62/2 37/59/2 39/61/2
f 39/61/8 33/52/8 35/56/8
f 36/58/3 38/60/3 40/62/3
f 42/65/8 43/68/8 41/63/8
f 44/69/2 47/73/2 43/68/2
f 48/74/3 45/71/3 47/73/3
f 47/73/4 41/64/4 43/67/4
f 44/70/5 46/72/5 48/74/5
f 9/14/8 50/77/8 10/15/8
f 13/21/4 49/76/4 9/13/4
f 10/16/5 52/80/5 14/22/5
f 14/22/3 51/79/3 13/21/3
f 57/89/3 60/92/3 59/91/3
f 63/98/11 62/95/11 61/94/11
f 67/103/9 64/99/9 63/98/9
f 65/101/12 68/104/12 67/103/12
f 61/93/4 67/103/4 63/97/4
f 66/102/5 64/100/5 68/104/5
f 69/107/4 75/117/4 71/111/4
f 77/119/2 80/125/2 78/121/2
f 83/129/5 80/125/5 79/124/5
f 81/127/9 84/130/9 83/129/9
f 77/120/8 83/129/8 79/123/8
f 82/128/3 80/126/3 84/130/3
f 85/131/2 88/137/2 86/133/2
f 91/141/5 88/137/5 87/136/5
f 89/139/9 92/142/9 91/141/9
f 85/132/8 91/141/8 87/135/8
f 90/140/3 88/138/3 92/142/3
f 95/148/8 94/145/8 93/143/8
f 99/153/9 96/149/9 95/148/9
f 97/151/3 100/154/3 99/153/3
f 93/144/4 99/153/4 95/147/4
f 98/152/5 96/150/5 100/154/5
f 102/157/8 61/94/8 62/95/8
f 101/156/4 65/101/4 61/93/4
f 104/160/5 62/96/5 66/102/5
f 103/159/3 66/102/3 65/101/3
f 8/12/3 6/10/3 5/9/3
f 10/15/6 12/19/6 11/18/6
f 12/19/2 16/24/2 15/23/2
f 16/24/7 14/22/7 13/21/7
f 15/23/4 13/21/4 9/13/4
f 12/20/5 10/16/5 14/22/5
f 23/37/4 21/35/4 17/27/4
f 25/39/9 26/41/9 28/45/9
f 28/45/5 32/50/5 31/49/5
f 32/50/2 30/48/2 29/47/2
f 31/49/8 29/47/8 25/40/8
f 28/46/3 26/42/3 30/48/3
f 33/51/9 34/53/9 36/57/9
f 36/57/5 40/62/5 39/61/5
f 40/62/2 38/60/2 37/59/2
f 39/61/8 37/59/8 33/52/8
f 36/58/3 34/54/3 38/60/3
f 42/65/8 44/69/8 43/68/8
f 44/69/2 48/74/2 47/73/2
f 48/74/3 46/72/3 45/71/3
f 47/73/4 45/71/4 41/64/4
f 44/70/5 42/66/5 46/72/5
f 9/14/8 49/75/8 50/77/8
f 13/21/4 51/79/4 49/76/4
f 10/16/5 50/78/5 52/80/5
f 14/22/3 52/80/3 51/79/3
f 57/89/3 58/90/3 60/92/3
f 63/98/11 64/99/11 62/95/11
f 67/103/9 68/104/9 64/99/9
f 65/101/12 66/102/12 68/104/12
f 61/93/4 65/101/4 67/103/4
f 66/102/5 62/96/5 64/100/5
f 69/107/4 73/115/4 75/117/4
f 77/119/2 79/124/2 80/125/2
f 83/129/5 84/130/5 80/125/5
f 81/127/9 82/128/9 84/130/9
f 77/120/8 81/127/8 83/129/8
f 82/128/3 78/122/3 80/126/3
f 85/131/2 87/136/2 88/137/2
f 91/141/5 92/142/5 88/137/5
f 89/139/9 90/140/9 92/142/9
f 85/132/8 89/139/8 91/141/8
f 90/140/3 86/134/3 88/138/3
f 95/148/8 96/149/8 94/145/8
f 99/153/9 100/154/9 96/149/9
f 97/151/3 98/152/3 100/154/3
f 93/144/4 97/151/4 99/153/4
f 98/152/5 94/146/5 96/150/5
f 102/157/8 101/155/8 61/94/8
f 101/156/4 103/159/4 65/101/4
f 104/160/5 102/158/5 62/96/5
f 103/159/3 104/160/3 66/102/3
usemtl Material.002
f 2/3/1 3/5/1 1/1/1
f 4/7/2 7/11/2 3/5/2
f 3/6/4 5/9/4 1/2/4
f 4/8/5 6/10/5 8/12/5
f 55/85/10 54/83/10 53/81/10
f 59/91/9 56/87/9 55/85/9
f 55/86/4 57/89/4 59/91/4
f 58/90/5 56/88/5 60/92/5
f 2/3/1 4/7/1 3/5/1
f 4/7/2 8/12/2 7/11/2
f 3/6/4 7/11/4 5/9/4
f 4/8/5 2/4/5 6/10/5
f 55/85/10 56/87/10 54/83/10
f 59/91/9 60/92/9 56/87/9
f 55/86/4 53/82/4 57/89/4
f 58/90/5 54/84/5 56/88/5
usemtl Material.003
f 18/28/8 19/32/8 17/25/8
f 20/33/2 23/37/2 19/32/2
f 24/38/3 21/35/3 23/37/3
f 22/36/9 17/26/9 21/35/9
f 20/34/5 22/36/5 24/38/5
f 71/112/8 70/108/8 69/105/8
f 75/117/9 72/113/9 71/112/9
f 73/115/3 76/118/3 75/117/3
f 69/106/2 74/116/2 73/115/2
f 74/116/5 72/114/5 76/118/5
f 18/28/8 20/33/8 19/32/8
f 20/33/2 24/38/2 23/37/2
f 24/38/3 22/36/3 21/35/3
f 22/36/9 18/29/9 17/26/9
f 20/34/5 18/30/5 22/36/5
f 71/112/8 72/113/8 70/108/8
f 75/117/9 76/118/9 72/113/9
f 73/115/3 74/116/3 76/118/3
f 69/106/2 70/109/2 74/116/2
f 74/116/5 70/110/5 72/114/5
