# Blender 3.5.1
# www.blender.org
mtllib gps2f_3panels.mtl
g S_Arr_2_Mesh
v 2.747913 0.918816 0.082836
v 9.973425 0.918816 0.082836
v 2.747913 0.918816 0.139044
v 2.747913 -0.918816 0.082836
v 9.973425 -0.918816 0.082836
v 2.747913 -0.918816 0.139044
v 9.973425 -0.918816 0.139044
v 9.973425 0.918816 0.139044
vn -0.0000 -0.0000 -1.0000
vn -0.0000 1.0000 -0.0000
vn -1.0000 -0.0000 -0.0000
vn -0.0000 -1.0000 -0.0000
vn -0.0000 -0.0000 1.0000
vn 1.0000 -0.0000 -0.0000
vt 0.375000 0.000000
vt 0.125000 0.750000
vt 0.375000 1.000000
vt 0.125000 0.500000
vt 0.375000 0.250000
vt 0.625000 0.000000
vt 0.625000 1.000000
vt 0.875000 0.750000
vt 0.375000 0.750000
vt 0.375000 0.500000
vt 0.625000 0.750000
vt 0.625000 0.500000
vt 0.875000 0.500000
vt 0.625000 0.250000
s 0
g S_Arr_2_Array_mat
usemtl Array_mat
f 5/10/1 1/2/1 2/4/1
f 3/6/2 2/5/2 1/1/2
f 6/11/3 1/3/3 4/9/3
f 7/12/4 4/9/4 5/10/4
f 8/13/5 6/11/5 7/12/5
f 8/14/6 5/10/6 2/5/6
f 5/10/1 4/9/1 1/2/1
f 3/6/2 8/14/2 2/5/2
f 6/11/3 3/7/3 1/3/3
f 7/12/4 6/11/4 4/9/4
f 8/13/5 3/8/5 6/11/5
f 8/14/6 7/12/6 5/10/6
g BUS_Mesh
v 1.163379 -0.017686 -0.889060
v 0.862823 0.932084 -0.889060
v 1.163379 -0.017686 1.110940
v -1.137177 -0.017686 -0.889060
v -1.137177 0.932084 -0.889060
v -1.137177 -0.017686 1.110940
v -1.137177 0.932084 1.110940
v 0.862823 0.932084 1.110940
v 1.163379 0.017686 -0.889060
v 1.163379 0.017686 1.110940
v 0.862823 -0.932084 -0.889060
v 0.862823 -0.932084 1.110940
v -1.137177 0.017686 -0.889060
v -1.137177 0.017686 1.110940
v -1.137177 -0.932084 -0.889060
v -1.137177 -0.932084 1.110940
vn -0.0000 -0.0000 -1.0000
vn 0.9534 0.3017 -0.0000
vn -1.0000 -0.0000 -0.0000
vn -0.0000 -0.0000 1.0000
vn -0.0000 1.0000 -0.0000
vn 0.9534 -0.3017 -0.0000
vn -0.0000 -1.0000 -0.0000
vt 0.375000 0.000000
vt 0.125000 0.750000
vt 0.125000 0.500000
vt 0.375000 0.250000
vt 0.625000 0.000000
vt 0.875000 0.750000
vt 0.375000 0.750000
vt 0.375000 0.500000
vt 0.625000 0.750000
vt 0.625000 0.500000
vt 0.875000 0.500000
vt 0.625000 0.250000
vt 0.375000 0.000000
vt 0.125000 0.750000
vt 0.625000 0.000000
vt 0.875000 0.750000
vt 0.375000 0.250000
vt 0.125000 0.500000
vt 0.625000 0.250000
vt 0.875000 0.500000
vt 0.375000 0.750000
vt 0.625000 0.750000
vt 0.375000 0.500000
vt 0.625000 0.500000
s 0
g BUS_Bus_mat
usemtl Bus_mat
f 10/17/7 12/21/7 13/22/7
f 10/18/8 11/19/8 9/15/8
f 12/21/9 15/24/9 13/22/9
f 14/23/10 16/25/10 15/24/10
f 13/22/11 16/26/11 10/18/11
f 18/29/12 19/31/12 17/27/12
f 20/33/13 23/37/13 19/31/13
f 24/38/9 21/35/9 23/37/9
f 19/32/7 21/35/7 17/28/7
f 20/34/10 22/36/10 24/38/10
f 10/17/7 9/16/7 12/21/7
f 10/18/8 16/26/8 11/19/8
f 12/21/9 14/23/9 15/24/9
f 14/23/10 11/20/10 16/25/10
f 13/22/11 15/24/11 16/26/11
f 18/29/12 20/33/12 19/31/12
f 20/33/13 24/38/13 23/37/13
f 24/38/9 22/36/9 21/35/9
f 19/32/7 23/37/7 21/35/7
f 20/34/10 18/30/10 22/36/10
g S_Arr_1_Mesh
v 0.781648 2.885087 0.082836
v 0.781669 10.110600 0.082836
v 0.781648 2.885087 0.139044
v -1.055984 2.885093 0.082836
v -1.055963 10.110605 0.082836
v -1.055984 2.885093 0.139044
v -1.055963 10.110605 0.139044
v 0.781669 10.110600 0.139044
vn -0.0000 -0.0000 -1.0000
vn 1.0000 -0.0000 -0.0000
vn -0.0000 -1.0000 -0.0000
vn -1.0000 -0.0000 -0.0000
vn -0.0000 -0.0000 1.0000
vn -0.0000 1.0000 -0.0000
vt 0.375000 0.000000
vt 0.125000 0.750000
vt 0.375000 1.000000
vt 0.125000 0.500000
vt 0.375000 0.250000
vt 0.625000 0.000000
vt 0.625000 1.000000
vt 0.875000 0.750000
vt 0.375000 0.750000
vt 0.375000 0.500000
vt 0.625000 0.750000
vt 0.625000 0.500000
vt 0.875000 0.500000
vt 0.625000 0.250000
s 0
g S_Arr_1_Array_mat
usemtl Array_mat
f 25/40/14 29/48/14 26/42/14
f 26/43/15 27/44/15 25/39/15
f 25/41/16 30/49/16 28/47/16
f 28/47/17 31/50/17 29/48/17
f 30/49/18 32/51/18 31/50/18
f 29/48/19 32/52/19 26/43/19
f 25/40/14 28/47/14 29/48/14
f 26/43/15 32/52/15 27/44/15
f 25/41/16 27/45/16 30/49/16
f 28/47/17 30/49/17 31/50/17
f 30/49/18 27/46/18 32/51/18
f 29/48/19 31/50/19 32/52/19
g S_Arr_3_Mesh
v -0.109073 0.918816 2.996030
v -0.109073 0.918816 10.221542
v -0.165282 0.918816 2.996030
v -0.109073 -0.918816 2.996030
v -0.109073 -0.918816 10.221542
v -0.165282 -0.918816 2.996030
v -0.165282 -0.918816 10.221542
v -0.165282 0.918816 10.221542
vn 1.0000 -0.0000 -0.0000
vn -0.0000 1.0000 -0.0000
vn -0.0000 -0.0000 -1.0000
vn -0.0000 -1.0000 -0.0000
vn -1.0000 -0.0000 -0.0000
vn -0.0000 -0.0000 1.0000
vt 0.375000 0.000000
vt 0.125000 0.750000
vt 0.375000 1.000000
vt 0.125000 0.500000
vt 0.375000 0.250000
vt 0.625000 0.000000
vt 0.625000 1.000000
vt 0.875000 0.750000
vt 0.375000 0.750000
vt 0.375000 0.500000
vt 0.625000 0.750000
vt 0.625000 0.500000
vt 0.875000 0.500000
vt 0.625000 0.250000
s 0
g S_Arr_3_Array_mat.001
usemtl Array_mat.001
f 37/62/20 33/54/20 34/56/20
f 35/58/21 34/57/21 33/53/21
f 38/63/22 33/55/22 36/61/22
f 39/64/23 36/61/23 37/62/23
f 40/65/24 38/63/24 39/64/24
f 40/66/25 37/62/25 34/57/25
f 37/62/20 36/61/20 33/54/20
f 35/58/21 40/66/21 34/57/21
f 38/63/22 35/59/22 33/55/22
f 39/64/23 38/63/23 36/61/23
f 40/65/24 35/60/24 38/63/24
f 40/66/25 39/64/25 37/62/25
