# Blender v3.4.1 OBJ File: 'grace.blend'
# www.blender.org
mtllib grace.mtl
o Cube_Cube.001
v -1.541145 -0.430808 -0.998668
v -1.541145 0.321054 -0.389664
v -1.541145 -0.430808 -1.780660
v -1.541145 0.321054 -2.389664
v 1.541145 -0.430808 -0.998668
v 1.541145 0.321054 -0.389664
v 1.541145 -0.430808 -1.780660
v 1.541145 0.321054 -2.389664
v 0.318305 0.175160 -1.356746
v 0.318305 0.175160 -1.422583
v 0.379596 0.175160 -1.356746
v 0.379596 0.175160 -1.422583
v 0.318305 0.910486 -1.356746
v 0.318305 0.910486 -1.422583
v 0.379596 0.910486 -1.422583
v 0.379596 0.910486 -1.356746
v -1.390957 0.349391 -0.487116
v -1.390957 0.349391 -2.292212
v 1.390957 0.349391 -2.292212
v 1.390957 0.349391 -0.487116
v -1.390957 0.270324 -0.487116
v -1.390957 0.270324 -2.292212
v 1.390957 0.270324 -2.292212
v 1.390957 0.270324 -0.487116
usemtl None
s off
f 2 3 1
f 4 7 3
f 8 5 7
f 6 1 5
f 7 1 3
f 2 18 4
f 11 10 12
f 14 16 15
f 9 14 10
f 11 13 9
f 10 15 12
f 12 16 11
f 19 24 20
f 6 17 2
f 4 19 8
f 8 20 6
f 22 24 23
f 17 22 18
f 20 21 17
f 18 23 19
f 2 4 3
f 4 8 7
f 8 6 5
f 6 2 1
f 7 5 1
f 2 17 18
f 11 9 10
f 14 13 16
f 9 13 14
f 11 16 13
f 10 14 15
f 12 15 16
f 19 23 24
f 6 20 17
f 4 18 19
f 8 19 20
f 22 21 24
f 17 21 22
f 20 24 21
f 18 22 23
