# Blender 3.4.1
# www.blender.org
mtllib worm.mtl
o Cube
v -0.764290 -0.024344 2.769942
v -0.764290 1.577627 2.769942
v -0.764290 -0.024344 -1.000000
v -0.764290 1.577627 -1.000000
v 0.014155 -0.024344 2.769942
v 0.014155 1.577627 2.769942
v 0.014155 -0.024344 -1.000000
v 0.014155 1.577627 -1.000000
v -1.278634 -0.359504 -1.000000
v -1.278634 -0.359504 1.000000
v -1.278634 0.359504 1.000000
v -1.278634 0.359504 -1.000000
v -1.918981 -0.359504 -1.000000
v -1.918981 -0.359504 1.000000
v -1.918981 0.359504 1.000000
v -1.918981 0.359504 -1.000000
v -2.302437 -0.359504 -1.000000
v -2.302437 -0.359504 1.000000
v -2.302437 0.359504 1.000000
v -2.302437 0.359504 -1.000000
v -2.457769 -0.359504 -2.260053
v -2.457769 -0.359504 2.260053
v -2.457769 0.359504 2.260053
v -2.457769 0.359504 -2.260053
v -3.335395 -0.359504 -2.260053
v -3.335395 -0.359504 2.260053
v -3.335395 0.359504 2.260053
v -3.335395 0.359504 -2.260053
v -4.134402 -0.359504 -2.260053
v -4.134402 -0.359504 2.260053
v -4.134402 0.359504 2.260053
v -4.134402 0.359504 -2.260053
v -4.921265 -0.359504 -2.260053
v -4.921265 -0.359504 2.260053
v -4.921265 0.359504 2.260053
v -4.921265 0.359504 -2.260053
v -5.690953 -0.359504 -2.260053
v -5.690953 -0.359504 2.260053
v -5.690953 0.359504 2.260053
v -5.690953 0.359504 -2.260053
v -6.439368 -0.359504 -2.260053
v -6.439368 -0.359504 2.260053
v -6.439368 0.359504 2.260053
v -6.439368 0.359504 -2.260053
v -7.171567 -0.359504 -2.260053
v -7.171567 -0.359504 2.260053
v -7.171567 0.359504 2.260053
v -7.171567 0.359504 -2.260053
v -7.973368 -0.359504 -2.260053
v -7.973368 -0.359504 2.260053
v -7.973368 0.359504 2.260053
v -7.973368 0.359504 -2.260053
v -8.622031 -0.359504 -2.260053
v -8.622031 -0.359504 2.260053
v -8.622031 0.359504 2.260053
v -8.622031 0.359504 -2.260053
v -9.281783 -0.359504 -2.260053
v -9.281783 -0.359504 2.260053
v -9.281783 0.359504 2.260053
v -9.281783 0.359504 -2.260053
v -9.909802 -0.359504 -2.260053
v -9.909802 -0.359504 2.260053
v -9.909802 0.359504 2.260053
v -9.909802 0.359504 -2.260053
v -10.485125 -0.359504 -2.260053
v -10.485125 -0.359504 2.260053
v -10.485125 0.359504 2.260053
v -10.485125 0.359504 -2.260053
v -10.741215 -0.245652 -1.544314
v -10.741215 -0.245652 1.544314
v -10.741215 0.245652 1.544314
v -10.741215 0.245652 -1.544314
v 0.764290 -0.024344 2.769942
v 0.764290 1.577627 2.769942
v 0.764290 -0.024344 -1.000000
v 0.764290 1.577627 -1.000000
v -0.014155 -0.024344 2.769942
v -0.014155 1.577627 2.769942
v -0.014155 -0.024344 -1.000000
v -0.014155 1.577627 -1.000000
v 1.278634 -0.359504 -1.000000
v 1.278634 -0.359504 1.000000
v 1.278634 0.359504 1.000000
v 1.278634 0.359504 -1.000000
v 1.918981 -0.359504 -1.000000
v 1.918981 -0.359504 1.000000
v 1.918981 0.359504 1.000000
v 1.918981 0.359504 -1.000000
v 2.302437 -0.359504 -1.000000
v 2.302437 -0.359504 1.000000
v 2.302437 0.359504 1.000000
v 2.302437 0.359504 -1.000000
v 2.457769 -0.359504 -2.260053
v 2.457769 -0.359504 2.260053
v 2.457769 0.359504 2.260053
v 2.457769 0.359504 -2.260053
v 3.335395 -0.359504 -2.260053
v 3.335395 -0.359504 2.260053
v 3.335395 0.359504 2.260053
v 3.335395 0.359504 -2.260053
v 4.134402 -0.359504 -2.260053
v 4.134402 -0.359504 2.260053
v 4.134402 0.359504 2.260053
v 4.134402 0.359504 -2.260053
v 4.921265 -0.359504 -2.260053
v 4.921265 -0.359504 2.260053
v 4.921265 0.359504 2.260053
v 4.921265 0.359504 -2.260053
v 5.690953 -0.359504 -2.260053
v 5.690953 -0.359504 2.260053
v 5.690953 0.359504 2.260053
v 5.690953 0.359504 -2.260053
v 6.439368 -0.359504 -2.260053
v 6.439368 -0.359504 2.260053
v 6.439368 0.359504 2.260053
v 6.439368 0.359504 -2.260053
v 7.171567 -0.359504 -2.260053
v 7.171567 -0.359504 2.260053
v 7.171567 0.359504 2.260053
v 7.171567 0.359504 -2.260053
v 7.973368 -0.359504 -2.260053
v 7.973368 -0.359504 2.260053
v 7.973368 0.359504 2.260053
v 7.973368 0.359504 -2.260053
v 8.622031 -0.359504 -2.260053
v 8.622031 -0.359504 2.260053
v 8.622031 0.359504 2.260053
v 8.622031 0.359504 -2.260053
v 9.281783 -0.359504 -2.260053
v 9.281783 -0.359504 2.260053
v 9.281783 0.359504 2.260053
v 9.281783 0.359504 -2.260053
v 9.909802 -0.359504 -2.260053
v 9.909802 -0.359504 2.260053
v 9.909802 0.359504 2.260053
v 9.909802 0.359504 -2.260053
v 10.485125 -0.359504 -2.260053
v 10.485125 -0.359504 2.260053
v 10.485125 0.359504 2.260053
v 10.485125 0.359504 -2.260053
v 10.741215 -0.245652 -1.544314
v 10.741215 -0.245652 1.544314
v 10.741215 0.245652 1.544314
v 10.741215 0.245652 -1.544314
vn -0.0000 -0.0000 -1.0000
vn -0.0000 -0.0000 1.0000
vn -0.0000 -1.0000 -0.0000
vn -0.0000 1.0000 -0.0000
vn -0.9603 -0.0000 0.2791
vn -0.9212 0.3890 -0.0000
vn 0.5459 -0.8378 -0.0000
vn 0.9925 -0.0000 -0.1223
vn 0.9925 -0.0000 0.1223
vn -0.4062 0.9138 -0.0000
vn -1.0000 -0.0000 -0.0000
vn -0.4062 -0.9138 -0.0000
vn -0.9415 -0.0000 -0.3369
vn -0.9415 -0.0000 0.3369
vn 0.9603 -0.0000 0.2791
vn 0.9212 0.3890 -0.0000
vn -0.5459 -0.8378 -0.0000
vn -0.9925 -0.0000 -0.1223
vn -0.9925 -0.0000 0.1223
vn 0.4062 0.9138 -0.0000
vn 1.0000 -0.0000 -0.0000
vn 0.4062 -0.9138 -0.0000
vn 0.9415 -0.0000 -0.3369
vn 0.9415 -0.0000 0.3369
vt 0.375000 1.000000
vt 0.125000 0.750000
vt 0.875000 0.750000
vt 0.625000 1.000000
vt 0.375000 0.250000
vt 0.125000 0.500000
vt 0.625000 0.250000
vt 0.875000 0.500000
vt 0.375000 0.750000
vt 0.625000 0.750000
vt 0.375000 0.500000
vt 0.625000 0.500000
vt 0.125000 0.500000
vt 0.375000 0.250000
vt 0.375000 1.000000
vt 0.125000 0.750000
vt 0.875000 0.750000
vt 0.625000 1.000000
vt 0.625000 0.250000
vt 0.875000 0.500000
vt 0.125000 0.500000
vt 0.375000 0.250000
vt 0.375000 1.000000
vt 0.125000 0.750000
vt 0.875000 0.750000
vt 0.625000 1.000000
vt 0.625000 0.250000
vt 0.875000 0.500000
vt 0.125000 0.500000
vt 0.375000 0.250000
vt 0.375000 1.000000
vt 0.125000 0.750000
vt 0.875000 0.750000
vt 0.625000 1.000000
vt 0.625000 0.250000
vt 0.875000 0.500000
vt 0.125000 0.500000
vt 0.375000 0.250000
vt 0.375000 1.000000
vt 0.125000 0.750000
vt 0.875000 0.750000
vt 0.625000 1.000000
vt 0.875000 0.500000
vt 0.625000 0.250000
vt 0.125000 0.500000
vt 0.375000 0.250000
vt 0.375000 1.000000
vt 0.125000 0.750000
vt 0.875000 0.750000
vt 0.625000 1.000000
vt 0.625000 0.250000
vt 0.875000 0.500000
vt 0.125000 0.500000
vt 0.375000 0.250000
vt 0.375000 1.000000
vt 0.125000 0.750000
vt 0.875000 0.750000
vt 0.625000 1.000000
vt 0.625000 0.250000
vt 0.875000 0.500000
vt 0.125000 0.500000
vt 0.375000 0.250000
vt 0.125000 0.750000
vt 0.375000 1.000000
vt 0.875000 0.750000
vt 0.625000 1.000000
vt 0.625000 0.250000
vt 0.875000 0.500000
vt 0.125000 0.500000
vt 0.375000 0.250000
vt 0.375000 1.000000
vt 0.125000 0.750000
vt 0.875000 0.750000
vt 0.625000 1.000000
vt 0.625000 0.250000
vt 0.875000 0.500000
vt 0.125000 0.500000
vt 0.375000 0.250000
vt 0.375000 1.000000
vt 0.125000 0.750000
vt 0.875000 0.750000
vt 0.625000 1.000000
vt 0.625000 0.250000
vt 0.875000 0.500000
vt 0.125000 0.500000
vt 0.375000 0.250000
vt 0.375000 1.000000
vt 0.125000 0.750000
vt 0.875000 0.750000
vt 0.625000 1.000000
vt 0.625000 0.250000
vt 0.875000 0.500000
vt 0.125000 0.500000
vt 0.375000 0.250000
vt 0.375000 1.000000
vt 0.125000 0.750000
vt 0.625000 1.000000
vt 0.875000 0.750000
vt 0.625000 0.250000
vt 0.875000 0.500000
vt 0.125000 0.500000
vt 0.375000 0.250000
vt 0.375000 1.000000
vt 0.125000 0.750000
vt 0.875000 0.750000
vt 0.625000 1.000000
vt 0.875000 0.500000
vt 0.625000 0.250000
vt 0.125000 0.500000
vt 0.375000 0.250000
vt 0.375000 1.000000
vt 0.125000 0.750000
vt 0.875000 0.750000
vt 0.625000 1.000000
vt 0.625000 0.250000
vt 0.875000 0.500000
vt 0.125000 0.500000
vt 0.375000 0.250000
vt 0.375000 1.000000
vt 0.125000 0.750000
vt 0.875000 0.750000
vt 0.625000 1.000000
vt 0.625000 0.250000
vt 0.875000 0.500000
vt 0.125000 0.500000
vt 0.375000 0.250000
vt 0.375000 1.000000
vt 0.125000 0.750000
vt 0.875000 0.750000
vt 0.625000 1.000000
vt 0.875000 0.500000
vt 0.625000 0.250000
vt 0.125000 0.500000
vt 0.375000 0.250000
vt 0.375000 0.000000
vt 0.125000 0.750000
vt 0.375000 1.000000
vt 0.875000 0.750000
vt 0.625000 0.000000
vt 0.625000 1.000000
vt 0.875000 0.500000
vt 0.625000 0.250000
vt 0.125000 0.750000
vt 0.375000 1.000000
vt 0.625000 1.000000
vt 0.875000 0.750000
vt 0.375000 0.250000
vt 0.125000 0.500000
vt 0.625000 0.250000
vt 0.875000 0.500000
vt 0.375000 0.750000
vt 0.625000 0.750000
vt 0.375000 0.500000
vt 0.625000 0.500000
vt 0.125000 0.500000
vt 0.375000 0.250000
vt 0.375000 1.000000
vt 0.125000 0.750000
vt 0.875000 0.750000
vt 0.625000 1.000000
vt 0.625000 0.250000
vt 0.875000 0.500000
vt 0.125000 0.500000
vt 0.375000 0.250000
vt 0.375000 1.000000
vt 0.125000 0.750000
vt 0.875000 0.750000
vt 0.625000 1.000000
vt 0.625000 0.250000
vt 0.875000 0.500000
vt 0.125000 0.500000
vt 0.375000 0.250000
vt 0.375000 1.000000
vt 0.125000 0.750000
vt 0.875000 0.750000
vt 0.625000 1.000000
vt 0.625000 0.250000
vt 0.875000 0.500000
vt 0.125000 0.500000
vt 0.375000 0.250000
vt 0.375000 1.000000
vt 0.125000 0.750000
vt 0.875000 0.750000
vt 0.625000 1.000000
vt 0.875000 0.500000
vt 0.625000 0.250000
vt 0.125000 0.500000
vt 0.375000 0.250000
vt 0.375000 1.000000
vt 0.125000 0.750000
vt 0.875000 0.750000
vt 0.625000 1.000000
vt 0.625000 0.250000
vt 0.875000 0.500000
vt 0.125000 0.500000
vt 0.375000 0.250000
vt 0.375000 1.000000
vt 0.125000 0.750000
vt 0.875000 0.750000
vt 0.625000 1.000000
vt 0.625000 0.250000
vt 0.875000 0.500000
vt 0.125000 0.500000
vt 0.375000 0.250000
vt 0.125000 0.750000
vt 0.375000 1.000000
vt 0.875000 0.750000
vt 0.625000 1.000000
vt 0.625000 0.250000
vt 0.875000 0.500000
vt 0.125000 0.500000
vt 0.375000 0.250000
vt 0.375000 1.000000
vt 0.125000 0.750000
vt 0.875000 0.750000
vt 0.625000 1.000000
vt 0.625000 0.250000
vt 0.875000 0.500000
vt 0.125000 0.500000
vt 0.375000 0.250000
vt 0.375000 1.000000
vt 0.125000 0.750000
vt 0.875000 0.750000
vt 0.625000 1.000000
vt 0.625000 0.250000
vt 0.875000 0.500000
vt 0.125000 0.500000
vt 0.375000 0.250000
vt 0.375000 1.000000
vt 0.125000 0.750000
vt 0.875000 0.750000
vt 0.625000 1.000000
vt 0.625000 0.250000
vt 0.875000 0.500000
vt 0.125000 0.500000
vt 0.375000 0.250000
vt 0.375000 1.000000
vt 0.125000 0.750000
vt 0.625000 1.000000
vt 0.875000 0.750000
vt 0.625000 0.250000
vt 0.875000 0.500000
vt 0.125000 0.500000
vt 0.375000 0.250000
vt 0.375000 1.000000
vt 0.125000 0.750000
vt 0.875000 0.750000
vt 0.625000 1.000000
vt 0.875000 0.500000
vt 0.625000 0.250000
vt 0.125000 0.500000
vt 0.375000 0.250000
vt 0.375000 1.000000
vt 0.125000 0.750000
vt 0.875000 0.750000
vt 0.625000 1.000000
vt 0.625000 0.250000
vt 0.875000 0.500000
vt 0.125000 0.500000
vt 0.375000 0.250000
vt 0.375000 1.000000
vt 0.125000 0.750000
vt 0.875000 0.750000
vt 0.625000 1.000000
vt 0.625000 0.250000
vt 0.875000 0.500000
vt 0.125000 0.500000
vt 0.375000 0.250000
vt 0.375000 1.000000
vt 0.125000 0.750000
vt 0.875000 0.750000
vt 0.625000 1.000000
vt 0.875000 0.500000
vt 0.625000 0.250000
vt 0.125000 0.500000
vt 0.375000 0.250000
vt 0.375000 0.000000
vt 0.125000 0.750000
vt 0.375000 1.000000
vt 0.875000 0.750000
vt 0.625000 0.000000
vt 0.625000 1.000000
vt 0.875000 0.500000
vt 0.625000 0.250000
s 0
g Cube_Gold
usemtl Gold
f 3/5/1 12/19/1 4/7/1
f 4/7/1 7/11/1 3/5/1
f 6/10/2 1/1/2 5/9/2
f 7/11/3 1/2/3 3/6/3
f 4/8/4 6/10/4 8/12/4
f 12/20/4 15/25/4 11/17/4
f 1/1/5 11/18/5 10/15/5
f 4/8/6 11/17/6 2/3/6
f 3/6/7 10/16/7 9/13/7
f 10/16/3 13/21/3 9/13/3
f 9/14/1 16/27/1 12/19/1
f 11/18/2 14/23/2 10/15/2
f 84/161/1 75/147/1 76/149/1
f 79/153/1 76/149/1 75/147/1
f 73/144/2 78/152/2 77/151/2
f 73/143/3 79/153/3 75/148/3
f 78/152/4 76/150/4 80/154/4
f 87/167/4 84/162/4 83/159/4
f 73/144/15 83/160/15 74/145/15
f 83/159/16 76/150/16 74/146/16
f 75/148/17 82/158/17 73/143/17
f 85/163/3 82/158/3 81/155/3
f 88/169/1 81/156/1 84/161/1
f 86/165/2 83/160/2 82/157/2
f 3/5/1 9/14/1 12/19/1
f 4/7/1 8/12/1 7/11/1
f 6/10/2 2/4/2 1/1/2
f 7/11/3 5/9/3 1/2/3
f 4/8/4 2/3/4 6/10/4
f 12/20/4 16/28/4 15/25/4
f 1/1/5 2/4/5 11/18/5
f 4/8/6 12/20/6 11/17/6
f 3/6/7 1/2/7 10/16/7
f 10/16/3 14/24/3 13/21/3
f 9/14/1 13/22/1 16/27/1
f 11/18/2 15/26/2 14/23/2
f 84/161/1 81/156/1 75/147/1
f 79/153/1 80/154/1 76/149/1
f 73/144/2 74/145/2 78/152/2
f 73/143/3 77/151/3 79/153/3
f 78/152/4 74/146/4 76/150/4
f 87/167/4 88/170/4 84/162/4
f 73/144/15 82/157/15 83/160/15
f 83/159/16 84/162/16 76/150/16
f 75/148/17 81/155/17 82/158/17
f 85/163/3 86/166/3 82/158/3
f 88/169/1 85/164/1 81/156/1
f 86/165/2 87/168/2 83/160/2
g Cube_Panel
usemtl Panel
f 24/43/4 27/49/4 23/41/4
f 25/46/1 32/59/1 28/51/1
f 22/40/3 25/45/3 21/37/3
f 21/38/1 28/51/1 24/44/1
f 23/42/2 26/47/2 22/39/2
f 32/60/4 35/65/4 31/57/4
f 27/50/2 30/55/2 26/47/2
f 28/52/4 31/57/4 27/49/4
f 26/48/3 29/53/3 25/45/3
f 34/63/3 37/69/3 33/61/3
f 30/56/3 33/61/3 29/53/3
f 29/54/1 36/67/1 32/59/1
f 31/58/2 34/64/2 30/55/2
f 37/70/1 44/83/1 40/75/1
f 33/62/1 40/75/1 36/67/1
f 35/66/2 38/71/2 34/64/2
f 36/68/4 39/73/4 35/65/4
f 44/84/4 47/89/4 43/81/4
f 39/74/2 42/79/2 38/71/2
f 40/76/4 43/81/4 39/73/4
f 38/72/3 41/77/3 37/69/3
f 45/86/1 52/99/1 48/91/1
f 42/80/3 45/85/3 41/77/3
f 41/78/1 48/91/1 44/83/1
f 43/82/2 46/87/2 42/79/2
f 51/97/2 54/103/2 50/95/2
f 47/90/2 50/95/2 46/87/2
f 48/92/4 51/98/4 47/89/4
f 46/88/3 49/93/3 45/85/3
f 56/107/4 59/113/4 55/105/4
f 52/100/4 55/105/4 51/98/4
f 50/96/3 53/101/3 49/93/3
f 49/94/1 56/108/1 52/99/1
f 57/110/1 64/123/1 60/115/1
f 54/104/3 57/109/3 53/101/3
f 53/102/1 60/115/1 56/108/1
f 55/106/2 58/111/2 54/103/2
f 64/124/4 67/129/4 63/121/4
f 59/114/2 62/119/2 58/111/2
f 60/116/4 63/121/4 59/113/4
f 58/112/3 61/117/3 57/109/3
f 62/120/3 65/125/3 61/117/3
f 61/118/1 68/132/1 64/123/1
f 63/122/2 66/127/2 62/119/2
f 99/191/4 96/185/4 95/183/4
f 104/201/1 97/188/1 100/193/1
f 97/187/3 94/182/3 93/179/3
f 100/193/1 93/180/1 96/186/1
f 98/189/2 95/184/2 94/181/2
f 107/207/4 104/202/4 103/199/4
f 102/197/2 99/192/2 98/189/2
f 103/199/4 100/194/4 99/191/4
f 101/195/3 98/190/3 97/187/3
f 109/211/3 106/205/3 105/203/3
f 105/203/3 102/198/3 101/195/3
f 108/209/1 101/196/1 104/201/1
f 106/206/2 103/200/2 102/197/2
f 116/225/1 109/212/1 112/217/1
f 112/217/1 105/204/1 108/209/1
f 110/213/2 107/208/2 106/206/2
f 111/215/4 108/210/4 107/207/4
f 119/231/4 116/226/4 115/223/4
f 114/221/2 111/216/2 110/213/2
f 115/223/4 112/218/4 111/215/4
f 113/219/3 110/214/3 109/211/3
f 124/241/1 117/228/1 120/233/1
f 117/227/3 114/222/3 113/219/3
f 120/233/1 113/220/1 116/225/1
f 118/229/2 115/224/2 114/221/2
f 126/245/2 123/239/2 122/237/2
f 122/237/2 119/232/2 118/229/2
f 123/240/4 120/234/4 119/231/4
f 121/235/3 118/230/3 117/227/3
f 131/255/4 128/249/4 127/247/4
f 127/247/4 124/242/4 123/240/4
f 125/243/3 122/238/3 121/235/3
f 128/250/1 121/236/1 124/241/1
f 136/265/1 129/252/1 132/257/1
f 129/251/3 126/246/3 125/243/3
f 132/257/1 125/244/1 128/250/1
f 130/253/2 127/248/2 126/245/2
f 139/271/4 136/266/4 135/263/4
f 134/261/2 131/256/2 130/253/2
f 135/263/4 132/258/4 131/255/4
f 133/259/3 130/254/3 129/251/3
f 137/267/3 134/262/3 133/259/3
f 140/274/1 133/260/1 136/265/1
f 138/269/2 135/264/2 134/261/2
f 24/43/4 28/52/4 27/49/4
f 25/46/1 29/54/1 32/59/1
f 22/40/3 26/48/3 25/45/3
f 21/38/1 25/46/1 28/51/1
f 23/42/2 27/50/2 26/47/2
f 32/60/4 36/68/4 35/65/4
f 27/50/2 31/58/2 30/55/2
f 28/52/4 32/60/4 31/57/4
f 26/48/3 30/56/3 29/53/3
f 34/63/3 38/72/3 37/69/3
f 30/56/3 34/63/3 33/61/3
f 29/54/1 33/62/1 36/67/1
f 31/58/2 35/66/2 34/64/2
f 37/70/1 41/78/1 44/83/1
f 33/62/1 37/70/1 40/75/1
f 35/66/2 39/74/2 38/71/2
f 36/68/4 40/76/4 39/73/4
f 44/84/4 48/92/4 47/89/4
f 39/74/2 43/82/2 42/79/2
f 40/76/4 44/84/4 43/81/4
f 38/72/3 42/80/3 41/77/3
f 45/86/1 49/94/1 52/99/1
f 42/80/3 46/88/3 45/85/3
f 41/78/1 45/86/1 48/91/1
f 43/82/2 47/90/2 46/87/2
f 51/97/2 55/106/2 54/103/2
f 47/90/2 51/97/2 50/95/2
f 48/92/4 52/100/4 51/98/4
f 46/88/3 50/96/3 49/93/3
f 56/107/4 60/116/4 59/113/4
f 52/100/4 56/107/4 55/105/4
f 50/96/3 54/104/3 53/101/3
f 49/94/1 53/102/1 56/108/1
f 57/110/1 61/118/1 64/123/1
f 54/104/3 58/112/3 57/109/3
f 53/102/1 57/110/1 60/115/1
f 55/106/2 59/114/2 58/111/2
f 64/124/4 68/131/4 67/129/4
f 59/114/2 63/122/2 62/119/2
f 60/116/4 64/124/4 63/121/4
f 58/112/3 62/120/3 61/117/3
f 62/120/3 66/128/3 65/125/3
f 61/118/1 65/126/1 68/132/1
f 63/122/2 67/130/2 66/127/2
f 99/191/4 100/194/4 96/185/4
f 104/201/1 101/196/1 97/188/1
f 97/187/3 98/190/3 94/182/3
f 100/193/1 97/188/1 93/180/1
f 98/189/2 99/192/2 95/184/2
f 107/207/4 108/210/4 104/202/4
f 102/197/2 103/200/2 99/192/2
f 103/199/4 104/202/4 100/194/4
f 101/195/3 102/198/3 98/190/3
f 109/211/3 110/214/3 106/205/3
f 105/203/3 106/205/3 102/198/3
f 108/209/1 105/204/1 101/196/1
f 106/206/2 107/208/2 103/200/2
f 116/225/1 113/220/1 109/212/1
f 112/217/1 109/212/1 105/204/1
f 110/213/2 111/216/2 107/208/2
f 111/215/4 112/218/4 108/210/4
f 119/231/4 120/234/4 116/226/4
f 114/221/2 115/224/2 111/216/2
f 115/223/4 116/226/4 112/218/4
f 113/219/3 114/222/3 110/214/3
f 124/241/1 121/236/1 117/228/1
f 117/227/3 118/230/3 114/222/3
f 120/233/1 117/228/1 113/220/1
f 118/229/2 119/232/2 115/224/2
f 126/245/2 127/248/2 123/239/2
f 122/237/2 123/239/2 119/232/2
f 123/240/4 124/242/4 120/234/4
f 121/235/3 122/238/3 118/230/3
f 131/255/4 132/258/4 128/249/4
f 127/247/4 128/249/4 124/242/4
f 125/243/3 126/246/3 122/238/3
f 128/250/1 125/244/1 121/236/1
f 136/265/1 133/260/1 129/252/1
f 129/251/3 130/254/3 126/246/3
f 132/257/1 129/252/1 125/244/1
f 130/253/2 131/256/2 127/248/2
f 139/271/4 140/273/4 136/266/4
f 134/261/2 135/264/2 131/256/2
f 135/263/4 136/266/4 132/258/4
f 133/259/3 134/262/3 130/254/3
f 137/267/3 138/270/3 134/262/3
f 140/274/1 137/268/1 133/260/1
f 138/269/2 139/272/2 135/264/2
g Cube_Plastic
usemtl Plastic
f 13/22/1 20/35/1 16/27/1
f 20/36/4 23/41/4 19/33/4
f 15/26/2 18/31/2 14/23/2
f 16/28/4 19/33/4 15/25/4
f 14/24/3 17/29/3 13/21/3
f 18/32/3 21/37/3 17/29/3
f 17/30/8 24/44/8 20/35/8
f 19/34/9 22/39/9 18/31/9
f 68/131/10 71/138/10 67/129/10
f 71/139/11 69/134/11 70/135/11
f 66/128/12 69/133/12 65/125/12
f 65/126/13 72/142/13 68/132/13
f 67/130/14 70/137/14 66/127/14
f 92/177/1 85/164/1 88/169/1
f 95/183/4 92/178/4 91/175/4
f 90/173/2 87/168/2 86/165/2
f 91/175/4 88/170/4 87/167/4
f 89/171/3 86/166/3 85/163/3
f 93/179/3 90/174/3 89/171/3
f 96/186/18 89/172/18 92/177/18
f 94/181/19 91/176/19 90/173/19
f 143/280/20 140/273/20 139/271/20
f 141/276/21 143/281/21 142/277/21
f 141/275/22 138/270/22 137/267/22
f 144/284/23 137/268/23 140/274/23
f 142/279/24 139/272/24 138/269/24
f 13/22/1 17/30/1 20/35/1
f 20/36/4 24/43/4 23/41/4
f 15/26/2 19/34/2 18/31/2
f 16/28/4 20/36/4 19/33/4
f 14/24/3 18/32/3 17/29/3
f 18/32/3 22/40/3 21/37/3
f 17/30/8 21/38/8 24/44/8
f 19/34/9 23/42/9 22/39/9
f 68/131/10 72/141/10 71/138/10
f 71/139/11 72/142/11 69/134/11
f 66/128/12 70/136/12 69/133/12
f 65/126/13 69/134/13 72/142/13
f 67/130/14 71/140/14 70/137/14
f 92/177/1 89/172/1 85/164/1
f 95/183/4 96/185/4 92/178/4
f 90/173/2 91/176/2 87/168/2
f 91/175/4 92/178/4 88/170/4
f 89/171/3 90/174/3 86/166/3
f 93/179/3 94/182/3 90/174/3
f 96/186/18 93/180/18 89/172/18
f 94/181/19 95/184/19 91/176/19
f 143/280/20 144/283/20 140/273/20
f 141/276/21 144/284/21 143/281/21
f 141/275/22 142/278/22 138/270/22
f 144/284/23 141/276/23 137/268/23
f 142/279/24 143/282/24 139/272/24
