# Lamella cube model
# 4 slats per face, 6 faces
# Tilt angles (deg): [0.0, 0.0, 0.0, 0.0, 0.0, 0.0]
# Total: 192 vertices, 96 triangles
mtllib lamella.mtl

v 0.500125 -0.500000 -0.493750
v 0.500125 0.500000 -0.493750
v 0.500125 0.500000 -0.256250
v 0.500125 -0.500000 -0.256250
v 0.499875 -0.500000 -0.493750
v 0.499875 0.500000 -0.493750
v 0.499875 0.500000 -0.256250
v 0.499875 -0.500000 -0.256250
v 0.500125 -0.500000 -0.243750
v 0.500125 0.500000 -0.243750
v 0.500125 0.500000 -0.006250
v 0.500125 -0.500000 -0.006250
v 0.499875 -0.500000 -0.243750
v 0.499875 0.500000 -0.243750
v 0.499875 0.500000 -0.006250
v 0.499875 -0.500000 -0.006250
v 0.500125 -0.500000 0.006250
v 0.500125 0.500000 0.006250
v 0.500125 0.500000 0.243750
v 0.500125 -0.500000 0.243750
v 0.499875 -0.500000 0.006250
v 0.499875 0.500000 0.006250
v 0.499875 0.500000 0.243750
v 0.499875 -0.500000 0.243750
v 0.500125 -0.500000 0.256250
v 0.500125 0.500000 0.256250
v 0.500125 0.500000 0.493750
v 0.500125 -0.500000 0.493750
v 0.499875 -0.500000 0.256250
v 0.499875 0.500000 0.256250
v 0.499875 0.500000 0.493750
v 0.499875 -0.500000 0.493750
v -0.500125 0.500000 -0.493750
v -0.500125 -0.500000 -0.493750
v -0.500125 -0.500000 -0.256250
v -0.500125 0.500000 -0.256250
v -0.499875 0.500000 -0.493750
v -0.499875 -0.500000 -0.493750
v -0.499875 -0.500000 -0.256250
v -0.499875 0.500000 -0.256250
v -0.500125 0.500000 -0.243750
v -0.500125 -0.500000 -0.243750
v -0.500125 -0.500000 -0.006250
v -0.500125 0.500000 -0.006250
v -0.499875 0.500000 -0.243750
v -0.499875 -0.500000 -0.243750
v -0.499875 -0.500000 -0.006250
v -0.499875 0.500000 -0.006250
v -0.500125 0.500000 0.006250
v -0.500125 -0.500000 0.006250
v -0.500125 -0.500000 0.243750
v -0.500125 0.500000 0.243750
v -0.499875 0.500000 0.006250
v -0.499875 -0.500000 0.006250
v -0.499875 -0.500000 0.243750
v -0.499875 0.500000 0.243750
v -0.500125 0.500000 0.256250
v -0.500125 -0.500000 0.256250
v -0.500125 -0.500000 0.493750
v -0.500125 0.500000 0.493750
v -0.499875 0.500000 0.256250
v -0.499875 -0.500000 0.256250
v -0.499875 -0.500000 0.493750
v -0.499875 0.500000 0.493750
v 0.500000 0.500125 -0.493750
v -0.500000 0.500125 -0.493750
v -0.500000 0.500125 -0.256250
v 0.500000 0.500125 -0.256250
v 0.500000 0.499875 -0.493750
v -0.500000 0.499875 -0.493750
v -0.500000 0.499875 -0.256250
v 0.500000 0.499875 -0.256250
v 0.500000 0.500125 -0.243750
v -0.500000 0.500125 -0.243750
v -0.500000 0.500125 -0.006250
v 0.500000 0.500125 -0.006250
v 0.500000 0.499875 -0.243750
v -0.500000 0.499875 -0.243750
v -0.500000 0.499875 -0.006250
v 0.500000 0.499875 -0.006250
v 0.500000 0.500125 0.006250
v -0.500000 0.500125 0.006250
v -0.500000 0.500125 0.243750
v 0.500000 0.500125 0.243750
v 0.500000 0.499875 0.006250
v -0.500000 0.499875 0.006250
v -0.500000 0.499875 0.243750
v 0.500000 0.499875 0.243750
v 0.500000 0.500125 0.256250
v -0.500000 0.500125 0.256250
v -0.500000 0.500125 0.493750
v 0.500000 0.500125 0.493750
v 0.500000 0.499875 0.256250
v -0.500000 0.499875 0.256250
v -0.500000 0.499875 0.493750
v 0.500000 0.499875 0.493750
v -0.500000 -0.500125 -0.493750
v 0.500000 -0.500125 -0.493750
v 0.500000 -0.500125 -0.256250
v -0.500000 -0.500125 -0.256250
v -0.500000 -0.499875 -0.493750
v 0.500000 -0.499875 -0.493750
v 0.500000 -0.499875 -0.256250
v -0.500000 -0.499875 -0.256250
v -0.500000 -0.500125 -0.243750
v 0.500000 -0.500125 -0.243750
v 0.500000 -0.500125 -0.006250
v -0.500000 -0.500125 -0.006250
v -0.500000 -0.499875 -0.243750
v 0.500000 -0.499875 -0.243750
v 0.500000 -0.499875 -0.006250
v -0.500000 -0.499875 -0.006250
v -0.500000 -0.500125 0.006250
v 0.500000 -0.500125 0.006250
v 0.500000 -0.500125 0.243750
v -0.500000 -0.500125 0.243750
v -0.500000 -0.499875 0.006250
v 0.500000 -0.499875 0.006250
v 0.500000 -0.499875 0.243750
v -0.500000 -0.499875 0.243750
v -0.500000 -0.500125 0.256250
v 0.500000 -0.500125 0.256250
v 0.500000 -0.500125 0.493750
v -0.500000 -0.500125 0.493750
v -0.500000 -0.499875 0.256250
v 0.500000 -0.499875 0.256250
v 0.500000 -0.499875 0.493750
v -0.500000 -0.499875 0.493750
v -0.500000 -0.493750 0.500125
v 0.500000 -0.493750 0.500125
v 0.500000 -0.256250 0.500125
v -0.500000 -0.256250 0.500125
v -0.500000 -0.493750 0.499875
v 0.500000 -0.493750 0.499875
v 0.500000 -0.256250 0.499875
v -0.500000 -0.256250 0.499875
v -0.500000 -0.243750 0.500125
v 0.500000 -0.243750 0.500125
v 0.500000 -0.006250 0.500125
v -0.500000 -0.006250 0.500125
v -0.500000 -0.243750 0.499875
v 0.500000 -0.243750 0.499875
v 0.500000 -0.006250 0.499875
v -0.500000 -0.006250 0.499875
v -0.500000 0.006250 0.500125
v 0.500000 0.006250 0.500125
v 0.500000 0.243750 0.500125
v -0.500000 0.243750 0.500125
v -0.500000 0.006250 0.499875
v 0.500000 0.006250 0.499875
v 0.500000 0.243750 0.499875
v -0.500000 0.243750 0.499875
v -0.500000 0.256250 0.500125
v 0.500000 0.256250 0.500125
v 0.500000 0.493750 0.500125
v -0.500000 0.493750 0.500125
v -0.500000 0.256250 0.499875
v 0.500000 0.256250 0.499875
v 0.500000 0.493750 0.499875
v -0.500000 0.493750 0.499875
v -0.500000 0.493750 -0.500125
v 0.500000 0.493750 -0.500125
v 0.500000 0.256250 -0.500125
v -0.500000 0.256250 -0.500125
v -0.500000 0.493750 -0.499875
v 0.500000 0.493750 -0.499875
v 0.500000 0.256250 -0.499875
v -0.500000 0.256250 -0.499875
v -0.500000 0.243750 -0.500125
v 0.500000 0.243750 -0.500125
v 0.500000 0.006250 -0.500125
v -0.500000 0.006250 -0.500125
v -0.500000 0.243750 -0.499875
v 0.500000 0.243750 -0.499875
v 0.500000 0.006250 -0.499875
v -0.500000 0.006250 -0.499875
v -0.500000 -0.006250 -0.500125
v 0.500000 -0.006250 -0.500125
v 0.500000 -0.243750 -0.500125
v -0.500000 -0.243750 -0.500125
v -0.500000 -0.006250 -0.499875
v 0.500000 -0.006250 -0.499875
v 0.500000 -0.243750 -0.499875
v -0.500000 -0.243750 -0.499875
v -0.500000 -0.256250 -0.500125
v 0.500000 -0.256250 -0.500125
v 0.500000 -0.493750 -0.500125
v -0.500000 -0.493750 -0.500125
v -0.500000 -0.256250 -0.499875
v 0.500000 -0.256250 -0.499875
v 0.500000 -0.493750 -0.499875
v -0.500000 -0.493750 -0.499875

vn 1.000000 0.000000 0.000000
vn -1.000000 -0.000000 -0.000000
vn -1.000000 0.000000 0.000000
vn 1.000000 -0.000000 -0.000000
vn 0.000000 1.000000 0.000000
vn -0.000000 -1.000000 -0.000000
vn 0.000000 -1.000000 0.000000
vn -0.000000 1.000000 -0.000000
vn 0.000000 0.000000 1.000000
vn -0.000000 -0.000000 -1.000000
vn 0.000000 0.000000 -1.000000
vn -0.000000 -0.000000 1.000000


g Face_PosX
usemtl Face_PosX
f 1//1 2//1 3//1
f 1//1 3//1 4//1

g Face_PosX_back
usemtl Face_PosX_back
f 5//2 7//2 6//2
f 5//2 8//2 7//2

g Face_PosX
usemtl Face_PosX
f 9//1 10//1 11//1
f 9//1 11//1 12//1

g Face_PosX_back
usemtl Face_PosX_back
f 13//2 15//2 14//2
f 13//2 16//2 15//2

g Face_PosX
usemtl Face_PosX
f 17//1 18//1 19//1
f 17//1 19//1 20//1

g Face_PosX_back
usemtl Face_PosX_back
f 21//2 23//2 22//2
f 21//2 24//2 23//2

g Face_PosX
usemtl Face_PosX
f 25//1 26//1 27//1
f 25//1 27//1 28//1

g Face_PosX_back
usemtl Face_PosX_back
f 29//2 31//2 30//2
f 29//2 32//2 31//2

g Face_NegX
usemtl Face_NegX
f 33//3 34//3 35//3
f 33//3 35//3 36//3

g Face_NegX_back
usemtl Face_NegX_back
f 37//4 39//4 38//4
f 37//4 40//4 39//4

g Face_NegX
usemtl Face_NegX
f 41//3 42//3 43//3
f 41//3 43//3 44//3

g Face_NegX_back
usemtl Face_NegX_back
f 45//4 47//4 46//4
f 45//4 48//4 47//4

g Face_NegX
usemtl Face_NegX
f 49//3 50//3 51//3
f 49//3 51//3 52//3

g Face_NegX_back
usemtl Face_NegX_back
f 53//4 55//4 54//4
f 53//4 56//4 55//4

g Face_NegX
usemtl Face_NegX
f 57//3 58//3 59//3
f 57//3 59//3 60//3

g Face_NegX_back
usemtl Face_NegX_back
f 61//4 63//4 62//4
f 61//4 64//4 63//4

g Face_PosY
usemtl Face_PosY
f 65//5 66//5 67//5
f 65//5 67//5 68//5

g Face_PosY_back
usemtl Face_PosY_back
f 69//6 71//6 70//6
f 69//6 72//6 71//6

g Face_PosY
usemtl Face_PosY
f 73//5 74//5 75//5
f 73//5 75//5 76//5

g Face_PosY_back
usemtl Face_PosY_back
f 77//6 79//6 78//6
f 77//6 80//6 79//6

g Face_PosY
usemtl Face_PosY
f 81//5 82//5 83//5
f 81//5 83//5 84//5

g Face_PosY_back
usemtl Face_PosY_back
f 85//6 87//6 86//6
f 85//6 88//6 87//6

g Face_PosY
usemtl Face_PosY
f 89//5 90//5 91//5
f 89//5 91//5 92//5

g Face_PosY_back
usemtl Face_PosY_back
f 93//6 95//6 94//6
f 93//6 96//6 95//6

g Face_NegY
usemtl Face_NegY
f 97//7 98//7 99//7
f 97//7 99//7 100//7

g Face_NegY_back
usemtl Face_NegY_back
f 101//8 103//8 102//8
f 101//8 104//8 103//8

g Face_NegY
usemtl Face_NegY
f 105//7 106//7 107//7
f 105//7 107//7 108//7

g Face_NegY_back
usemtl Face_NegY_back
f 109//8 111//8 110//8
f 109//8 112//8 111//8

g Face_NegY
usemtl Face_NegY
f 113//7 114//7 115//7
f 113//7 115//7 116//7

g Face_NegY_back
usemtl Face_NegY_back
f 117//8 119//8 118//8
f 117//8 120//8 119//8

g Face_NegY
usemtl Face_NegY
f 121//7 122//7 123//7
f 121//7 123//7 124//7

g Face_NegY_back
usemtl Face_NegY_back
f 125//8 127//8 126//8
f 125//8 128//8 127//8

g Face_PosZ
usemtl Face_PosZ
f 129//9 130//9 131//9
f 129//9 131//9 132//9

g Face_PosZ_back
usemtl Face_PosZ_back
f 133//10 135//10 134//10
f 133//10 136//10 135//10

g Face_PosZ
usemtl Face_PosZ
f 137//9 138//9 139//9
f 137//9 139//9 140//9

g Face_PosZ_back
usemtl Face_PosZ_back
f 141//10 143//10 142//10
f 141//10 144//10 143//10

g Face_PosZ
usemtl Face_PosZ
f 145//9 146//9 147//9
f 145//9 147//9 148//9

g Face_PosZ_back
usemtl Face_PosZ_back
f 149//10 151//10 150//10
f 149//10 152//10 151//10

g Face_PosZ
usemtl Face_PosZ
f 153//9 154//9 155//9
f 153//9 155//9 156//9

g Face_PosZ_back
usemtl Face_PosZ_back
f 157//10 159//10 158//10
f 157//10 160//10 159//10

g Face_NegZ
usemtl Face_NegZ
f 161//11 162//11 163//11
f 161//11 163//11 164//11

g Face_NegZ_back
usemtl Face_NegZ_back
f 165//12 167//12 166//12
f 165//12 168//12 167//12

g Face_NegZ
usemtl Face_NegZ
f 169//11 170//11 171//11
f 169//11 171//11 172//11

g Face_NegZ_back
usemtl Face_NegZ_back
f 173//12 175//12 174//12
f 173//12 176//12 175//12

g Face_NegZ
usemtl Face_NegZ
f 177//11 178//11 179//11
f 177//11 179//11 180//11

g Face_NegZ_back
usemtl Face_NegZ_back
f 181//12 183//12 182//12
f 181//12 184//12 183//12

g Face_NegZ
usemtl Face_NegZ
f 185//11 186//11 187//11
f 185//11 187//11 188//11

g Face_NegZ_back
usemtl Face_NegZ_back
f 189//12 191//12 190//12
f 189//12 192//12 191//12
